# xmcd
#
# Track frame offsets: 
#        150
#        19976
#        30289
#        47434
#
# Disc length: 872 seconds
#
# Revision: 0
# Processed by: cddbd v1.5.1PL0 Copyright (c) Steve Scherf et al.
# Submitted via: ExactAudioCopy v0.95a5
#
DISCID=22036604
DTITLE=G. Love - The Hustle EP
DYEAR=2004
DGENRE=
TTITLE0=Kickin' Back
TTITLE1=Amy
TTITLE2=Ain't That Right
TTITLE3=Windshield Wiper No. 1
EXTD=
EXTT0=
EXTT1=
EXTT2=
EXTT3=
PLAYORDER=
